<svg width="36" height="41" viewBox="0 0 36 41" fill="none" xmlns="http://www.w3.org/2000/svg">
<path d="M25.4437 0C28.0391 0 30.5282 1.03102 32.3634 2.86626C34.1987 4.70149 35.2297 7.19061 35.2297 9.78602V25.4437C35.2297 28.0391 34.1987 30.5282 32.3634 32.3634C30.5282 34.1987 28.0391 35.2297 25.4437 35.2297H9.78602C7.19061 35.2297 4.70149 34.1987 2.86626 32.3634C1.03102 30.5282 0 28.0391 0 25.4437V9.78602C0 7.19061 1.03102 4.70149 2.86626 2.86626C4.70149 1.03102 7.19061 0 9.78602 0H25.4437ZM17.6148 9.78602C15.5385 9.78602 13.5472 10.6108 12.079 12.079C10.6108 13.5472 9.78602 15.5385 9.78602 17.6148C9.78602 19.6912 10.6108 21.6825 12.079 23.1506C13.5472 24.6188 15.5385 25.4437 17.6148 25.4437C19.6912 25.4437 21.6825 24.6188 23.1506 23.1506C24.6188 21.6825 25.4437 19.6912 25.4437 17.6148C25.4437 15.5385 24.6188 13.5472 23.1506 12.079C21.6825 10.6108 19.6912 9.78602 17.6148 9.78602ZM17.6148 13.7004C18.653 13.7004 19.6486 14.1128 20.3827 14.8469C21.1168 15.581 21.5292 16.5767 21.5292 17.6148C21.5292 18.653 21.1168 19.6486 20.3827 20.3827C19.6486 21.1168 18.653 21.5292 17.6148 21.5292C16.5767 21.5292 15.581 21.1168 14.8469 20.3827C14.1128 19.6486 13.7004 18.653 13.7004 17.6148C13.7004 16.5767 14.1128 15.581 14.8469 14.8469C15.581 14.1128 16.5767 13.7004 17.6148 13.7004ZM26.4223 6.85021C25.9032 6.85021 25.4054 7.05642 25.0383 7.42347C24.6713 7.79051 24.4651 8.28834 24.4651 8.80742C24.4651 9.3265 24.6713 9.82432 25.0383 10.1914C25.4054 10.5584 25.9032 10.7646 26.4223 10.7646C26.9413 10.7646 27.4392 10.5584 27.8062 10.1914C28.1733 9.82432 28.3795 9.3265 28.3795 8.80742C28.3795 8.28834 28.1733 7.79051 27.8062 7.42347C27.4392 7.05642 26.9413 6.85021 26.4223 6.85021Z" fill="white" fill-opacity="0.73"/>
</svg>
