<svg width="36" height="41" viewBox="0 0 36 41" fill="none" xmlns="http://www.w3.org/2000/svg">
<path d="M25.61 0C28.2224 0 30.7278 1.03776 32.575 2.885C34.4222 4.73223 35.46 7.23762 35.46 9.85V25.61C35.46 28.2224 34.4222 30.7278 32.575 32.575C30.7278 34.4222 28.2224 35.46 25.61 35.46H9.85C7.23762 35.46 4.73223 34.4222 2.885 32.575C1.03776 30.7278 0 28.2224 0 25.61V9.85C0 7.23762 1.03776 4.73223 2.885 2.885C4.73223 1.03776 7.23762 0 9.85 0H25.61ZM17.73 9.85C15.6401 9.85 13.6358 10.6802 12.158 12.158C10.6802 13.6358 9.85 15.6401 9.85 17.73C9.85 19.8199 10.6802 21.8242 12.158 23.302C13.6358 24.7798 15.6401 25.61 17.73 25.61C19.8199 25.61 21.8242 24.7798 23.302 23.302C24.7798 21.8242 25.61 19.8199 25.61 17.73C25.61 15.6401 24.7798 13.6358 23.302 12.158C21.8242 10.6802 19.8199 9.85 17.73 9.85ZM17.73 13.79C18.775 13.79 19.7771 14.2051 20.516 14.944C21.2549 15.6829 21.67 16.685 21.67 17.73C21.67 18.775 21.2549 19.7771 20.516 20.516C19.7771 21.2549 18.775 21.67 17.73 21.67C16.685 21.67 15.6829 21.2549 14.944 20.516C14.2051 19.7771 13.79 18.775 13.79 17.73C13.79 16.685 14.2051 15.6829 14.944 14.944C15.6829 14.2051 16.685 13.79 17.73 13.79ZM26.595 6.895C26.0725 6.895 25.5714 7.10255 25.202 7.472C24.8326 7.84145 24.625 8.34252 24.625 8.865C24.625 9.38748 24.8326 9.88855 25.202 10.258C25.5714 10.6274 26.0725 10.835 26.595 10.835C27.1175 10.835 27.6186 10.6274 27.988 10.258C28.3575 9.88855 28.565 9.38748 28.565 8.865C28.565 8.34252 28.3575 7.84145 27.988 7.472C27.6186 7.10255 27.1175 6.895 26.595 6.895Z" fill="white" fill-opacity="0.73"/>
</svg>
