<svg width="518" height="520" viewBox="0 0 518 520" fill="none" xmlns="http://www.w3.org/2000/svg">
<path d="M86.094 65.8462C116.502 37.7947 146.715 25.4004 156.645 21.3846L158.181 20.7441C290.058 -34.2427 442.086 28.3136 497.073 160.19C549.658 286.307 494.693 430.78 374.461 491.284C373.953 491.537 373.456 491.827 372.926 492.127L372.897 492.056C367.907 494.547 362.827 496.909 357.621 499.08C225.74 554.069 73.7161 491.511 18.7293 359.634C-27.0776 249.762 17.9293 128.707 86.094 65.8462ZM162.721 164.472C171.794 186.231 196.871 196.521 218.596 187.463C240.355 178.39 250.659 153.348 241.586 131.589C232.529 109.865 207.472 99.5251 185.712 108.598C163.99 117.66 153.663 142.748 162.721 164.472ZM350.346 481.621C355.376 479.524 360.247 477.249 365.06 474.831C409.194 451.181 418.934 418.792 420.226 374.303C421.383 334.502 398.867 294.858 364.216 275.567C332.031 257.666 297.677 262.396 291.105 263.536C281.767 265.133 277.629 266.614 270.762 269.025C266.695 270.477 261.614 272.263 254.221 274.487C224.879 283.36 194.207 280.693 175.315 275.204C102.971 254.205 77.8495 180.184 74.9872 170.963C73.9658 168.027 65.7468 142.508 71.9958 109.609C24.9103 171.799 0.126201 265.848 36.1975 352.36C87.164 474.594 228.072 532.604 350.346 481.621Z" fill="#0F1321"/>
</svg>
